# xmcd
#
# Track frame offsets:
#	150
#	15191
#	31741
#	45173
#	57561
#	75076
#	87234
#	100992
#	113977
#	127014
#	144496
#	160587
#	175962
#
# Disc length: 2589 seconds
#
# Revision: 1
# Processed by: cddbd v1.4PL0 Copyright (c) Steve Scherf et al.
# Submitted via: audiograbber 1.80.04
#
DISCID=920a1b0d
DTITLE=DAGMAR - PAUSENLOS  UND  OHNE  ENDE
DYEAR=1900
DGENRE=
TTITLE0=METER  ÜBER'M  BODEN  SCHWEBEN
TTITLE1=KLEINE  LICHTLEIN
TTITLE2=MÄDCHEN  MÜSSEN  MANCHMAL  MOGELN
TTITLE3=WER  WARTEN  WILL  SOLL WARTEN
TTITLE4=IRGENDWANN  KOMMT  JEDER  COWBOY  IN  DEN  HIMMEL
TTITLE5=DU  MACHST  MICH  FIX  UND  FERTIG
TTITLE6=DAS  LICHT  DES  HIMMELS
TTITLE7=ZU  LANGE  GEGEN  DEN  WIND
TTITLE8=PAUSENLOS  UND  OHNE  ENDE
TTITLE9=DIE  SONNE  SCHEINT  AUCH  FÜR  DICH
TTITLE10=LIEBE  LEBT  LÄNGER
TTITLE11=KINDERHERZEN
TTITLE12=AMAZING  GRACE
EXTD=
EXTT0=
EXTT1=
EXTT2=
EXTT3=
EXTT4=
EXTT5=
EXTT6=
EXTT7=
EXTT8=
EXTT9=
EXTT10=
EXTT11=
EXTT12=
PLAYORDER=
